<svg width="120" height="30" viewBox="0 0 120 30" fill="none" xmlns="http://www.w3.org/2000/svg">
<g clip-path="url(#clip0_615_112)">
<path d="M2.54888 0.826401V10.2819C2.54886 10.3332 2.55916 10.384 2.57917 10.4312C2.59918 10.4785 2.62849 10.5213 2.66538 10.5571C2.70227 10.5929 2.74599 10.6211 2.79397 10.6398C2.84194 10.6585 2.8932 10.6675 2.94473 10.6663H10.2824V11.1467H2.94473C2.8932 11.1454 2.84194 11.1544 2.79397 11.1732C2.74599 11.1919 2.70227 11.22 2.66538 11.2558C2.62849 11.2917 2.59918 11.3345 2.57917 11.3817C2.55916 11.429 2.54886 11.4798 2.54888 11.5311V22.9468H0V0.0384521H14.4823V1.62397C11.434 1.02552 8.34589 0.649758 5.24258 0.499691H2.8868C2.79882 0.499655 2.7143 0.533768 2.6512 0.594777C2.5881 0.655787 2.55139 0.738879 2.54888 0.826401Z" fill="#DE968D"/>
<path d="M18.2671 1.50866V22.9084H15.8823V0L18.2671 1.50866Z" fill="#DE968D"/>
<path d="M34.6416 12.6746V22.9084H32.3534V18.5746C32.3534 18.5746 29.988 23.0525 25.7205 23.0525C23.2199 23.0525 20.5359 21.7072 20.5359 18.2479C20.5359 12.2325 29.6887 12.4824 32.3534 12.4824C32.3534 8.99424 30.5769 7.38949 28.6749 7.38949C25.7205 7.38949 23.4323 11.3869 23.4323 11.3869L22.4669 9.82063C23.2539 8.97486 24.2042 8.29561 25.2609 7.82343C26.3175 7.35125 27.4589 7.09582 28.617 7.07239C32.1796 7.11082 34.6416 9.03267 34.6416 12.6746ZM32.3534 12.8475C28.2405 12.8475 22.8144 13.4145 22.8144 17.7482C22.8144 19.968 24.0696 22.0051 26.8019 22.0051C30.3645 22.0051 32.3534 17.9885 32.3534 17.9885V12.8475Z" fill="#DE968D"/>
<path d="M48.4577 18.1326C48.4577 20.4869 46.5267 22.87 42.6648 22.87C40.7769 22.8902 38.9266 22.3445 37.3546 21.3037L38.3201 19.5932C39.7309 20.7356 41.4317 21.4673 43.2344 21.7072C45.4068 21.9763 47.6274 20.9385 47.6274 19.2185C47.6274 17.7482 45.6192 17.0756 44.0068 16.451C42.291 15.934 40.608 15.3147 38.967 14.5964C38.5217 14.4028 38.1195 14.123 37.7838 13.7734C37.448 13.4238 37.1854 13.0113 37.0111 12.5598C36.8369 12.1084 36.7544 11.627 36.7687 11.1435C36.7829 10.6601 36.8934 10.1843 37.0939 9.74376C37.6829 8.11019 39.247 7.11084 41.9214 7.11084C42.9606 7.12535 43.9857 7.353 44.9326 7.77957C45.8795 8.20613 46.7278 8.82244 47.4246 9.59001L46.295 11.6944C46.295 11.6944 44.2964 8.46573 42.1145 7.90839C40.5118 7.50481 38.9863 7.74504 38.4649 8.94619C37.4994 11.1467 40.28 12.54 41.4869 12.9725L43.7365 13.7796C45.9571 14.4907 48.4577 15.2979 48.4577 18.1326Z" fill="#DE968D"/>
<path d="M64.0406 12.6746V22.9084H61.7621V18.5746C61.7621 18.5746 59.3967 23.0525 55.1292 23.0525C52.619 23.0525 49.9446 21.7072 49.9446 18.2479C49.9446 12.2325 59.0877 12.4824 61.7524 12.4824C61.7524 8.99424 59.9856 7.38949 58.0836 7.38949C55.1196 7.38949 52.8314 11.3869 52.8314 11.3869L51.8659 9.82063C52.6512 8.97515 53.5997 8.29599 54.6548 7.82378C55.7098 7.35157 56.8498 7.09601 58.0064 7.07239C61.6269 7.11082 64.0406 9.03267 64.0406 12.6746ZM61.7524 12.8475C57.6491 12.8475 52.2231 13.4145 52.2231 17.7482C52.2231 19.968 53.4782 22.0051 56.2106 22.0051C59.7732 22.0051 61.7524 17.9885 61.7524 17.9885V12.8475Z" fill="#DE968D"/>
<path d="M81.9793 14.779C81.9793 17.9981 79.8746 22.7354 74.5934 22.7354C73.5437 22.6785 72.5223 22.3766 71.6115 21.8541C70.7008 21.3316 69.9264 20.6032 69.3508 19.7277V30.0096L66.9661 28.5009V7.1012H69.3508V9.92631C69.766 9.40741 71.9962 6.90902 75.1437 6.90902C79.0056 6.89941 81.9793 10.4164 81.9793 14.779ZM79.7587 16.4221C79.7587 12.4728 77.8278 8.22548 73.6858 8.22548C72.8802 8.26035 72.0898 8.45611 71.3616 8.80113C70.6335 9.14614 69.9825 9.63337 69.4474 10.2338V11.0794V18.4881C69.806 19.5958 70.4989 20.5666 71.4319 21.2681C72.3648 21.9697 73.4924 22.368 74.661 22.4087C77.7505 22.4183 79.7587 20.064 79.7587 16.4221Z" fill="#DE968D"/>
<path d="M97.5428 12.492V22.9084H95.2257V13.1166C95.2257 9.77259 93.7678 8.00449 91.0065 8.00449C89.443 8.12482 87.9585 8.73736 86.768 9.75337V22.9084H84.3833V0L86.7584 1.50866V9.31134C88.4671 8.04099 90.5023 7.27808 92.6285 7.11084C95.805 7.11084 97.5428 9.02306 97.5428 12.492Z" fill="#DE968D"/>
<path d="M100.246 2.99809C100.212 2.78909 100.223 2.57514 100.28 2.37108C100.337 2.16701 100.438 1.97772 100.576 1.81631C100.714 1.6549 100.885 1.52524 101.078 1.43631C101.271 1.34739 101.482 1.30133 101.694 1.30133C101.907 1.30133 102.117 1.34739 102.311 1.43631C102.504 1.52524 102.675 1.6549 102.813 1.81631C102.951 1.97772 103.051 2.16701 103.108 2.37108C103.165 2.57514 103.177 2.78909 103.143 2.99809C103.086 3.33997 102.91 3.65081 102.644 3.8751C102.379 4.09939 102.042 4.22254 101.694 4.22254C101.346 4.22254 101.01 4.09939 100.744 3.8751C100.479 3.65081 100.302 3.33997 100.246 2.99809ZM100.526 7.11085L102.901 8.60989V22.9084H100.526V7.11085Z" fill="#DE968D"/>
<path d="M120 18.8917C118.523 20.8136 116.061 23.187 112.624 23.187C111.628 23.2041 110.639 23.0172 109.718 22.638C108.798 22.2588 107.965 21.6954 107.273 20.9826C106.58 20.2699 106.042 19.4231 105.692 18.4947C105.342 17.5664 105.187 16.5764 105.238 15.5861C105.178 13.6049 105.839 11.6687 107.098 10.133C108.357 8.59735 110.131 7.56523 112.093 7.22612C115.955 6.67839 118.04 8.33117 119.112 10.205L116.949 10.8872C116.949 10.8872 115.578 7.35104 112.296 7.5144C109.013 7.67775 107.343 10.695 107.343 14.0583C107.343 18.4209 110.085 21.3517 114.169 21.3517C115.257 21.3476 116.331 21.0983 117.309 20.6223C118.287 20.1464 119.145 19.4561 119.817 18.6034L120 18.8917Z" fill="#DE968D"/>
</g>
<defs>
<clipPath id="clip0_615_112">
<rect width="120" height="30" fill="white"/>
</clipPath>
</defs>
</svg>
